<svg viewBox="0 0 460 396" focusable="false" class="chakra-icon css-1vlbbtq" xmlns="http://www.w3.org/2000/svg"><path d="M106.883 387.394V395.569H162.201V387.394L138.493 368.318H122.272L106.883 387.394Z" fill="black"></path><path d="M90.5195 387.394V395.569H145.838V387.394L122.13 368.318H105.909L90.5195 387.394Z" fill="black"></path><path d="M98.3086 386.987V391.529H134.928V386.987L119.234 374.371H108.496L98.3086 386.987Z" fill="black"></path><line y1="-1.35545" x2="30.8735" y2="-1.35545" transform="matrix(-1 0 0 1 90.1719 273.196)" stroke="black" stroke-width="2.7109"></line><rect width="30.8735" height="38.7898" transform="matrix(-1 0 0 1 90.168 240.871)" fill="#535353"></rect><line y1="-1.1869" x2="30.8735" y2="-1.1869" transform="matrix(-1 0 0 1 90.168 263.138)" stroke="black" stroke-width="2.3738"></line><line y1="-1.1869" x2="30.8735" y2="-1.1869" transform="matrix(-1 0 0 1 90.168 253.083)" stroke="black" stroke-width="2.3738"></line><path d="M126.188 291.993L144.12 315.778L160.512 312.767L172.889 294.034" stroke="#D0D0D0" stroke-width="16.2654"></path><path fill-rule="evenodd" clip-rule="evenodd" d="M121.673 280.07V303.028H108.234V280.07H121.673Z" fill="#535353"></path><path fill-rule="evenodd" clip-rule="evenodd" d="M109.8 280.07V303.028H122.608L128.008 297.713V284.763L123.239 280.07H109.8Z" fill="#535353"></path><path d="M119.067 269.37H19.1542V293.119V386.135H134.504V293.119L119.067 269.37Z" fill="#8E8E8E"></path><rect x="74.0736" y="310.933" width="43.8566" height="60.1649" stroke="black" stroke-width="2.3738"></rect><rect x="115.773" y="326.873" width="4.87803" height="29.5087" fill="#8E8E8E" stroke="black" stroke-width="2.3738"></rect><line x1="115.488" y1="335.365" x2="120.927" y2="335.365" stroke="black" stroke-width="2.7109"></line><line x1="115.488" y1="346.4" x2="120.927" y2="346.4" stroke="black" stroke-width="2.7109"></line><path d="M53.7573 303.414L63.0411 307.885L65.334 317.931L58.9094 325.987H48.6051L42.1805 317.931L44.4734 307.885L53.7573 303.414Z" fill="white"></path><path d="M47.2773 314.17L53.7405 308.97L55.2953 310.898L51.0495 314.307L51.9893 315.473L56.1604 312.11L57.7152 314.038L53.544 317.401L54.4332 318.504L58.8207 314.939L60.3755 316.867L53.7556 322.205L47.2773 314.17Z" fill="black"></path><path d="M43.0707 271.353L56.9242 295.101M56.9242 295.101H133.316M56.9242 295.101V372.285" stroke="black" stroke-width="2.3738"></path><path d="M69.6614 288.769H79.9914L75.9494 282.831H65.6193L69.6614 288.769ZM64.0036 280.457H74.3336L70.2916 274.519H59.9615L64.0036 280.457ZM73.1631 274.519L77.2052 280.457H87.5352L83.4932 274.519H73.1631ZM96.6947 274.519H86.3647L90.4067 280.457H100.737L96.6947 274.519ZM102.353 282.831H92.0225L96.0646 288.769H106.395L102.353 282.831ZM82.863 288.769H93.193L89.151 282.831H78.8209L82.863 288.769ZM105.224 282.831L109.266 288.769H119.596L115.554 282.831H105.224ZM103.608 280.457H113.938L109.896 274.519H99.5663L103.608 280.457Z" fill="#FF5D5D" stroke="black" stroke-width="2.3738"></path><path d="M16.6445 387.394V395.569H71.9631V387.394L48.2551 368.318H32.0339L16.6445 387.394Z" fill="black"></path><path d="M0.277344 387.394V395.569H55.5959V387.394L31.8879 368.318H15.6667L0.277344 387.394Z" fill="black"></path><path d="M8.07771 386.987L7.99226 391.024H44.6116L44.697 386.987L29.003 374.371H18.265L8.07771 386.987Z" fill="#535353"></path><path d="M23.9536 374.371H28.9905L45.1087 386.987V391.024H27.6688H20.2383L15.6055 384.859L17.2589 377.601L23.9536 374.371Z" fill="#8E8E8E"></path><path d="M24.4531 375.381L31.1478 378.611L32.0085 385.474L27.979 390.015" stroke="black" stroke-width="2.3738"></path><path d="M24.0586 269.637L140.462 225.206L129.512 196.518L110.889 188.185L22.055 222.092L13.1087 240.949L24.0586 269.637Z" fill="#8E8E8E"></path><path d="M60.0273 255.906L140.454 225.208L129.504 196.52L110.881 188.186L58.0237 208.362L49.0774 227.218L60.0273 255.906Z" fill="black"></path><path fill-rule="evenodd" clip-rule="evenodd" d="M133.079 222.091L63.2284 248.753L55.0989 227.454L62.0771 212.746L110.713 194.182L124.924 200.725L133.079 222.091ZM129.504 196.52L110.881 188.186L58.0237 208.362L49.0774 227.218L60.0273 255.906L140.454 225.208L129.504 196.52Z" fill="#8E8E8E"></path><rect x="81.4453" y="224.379" width="5.42731" height="6.51277" transform="rotate(-20.8916 81.4453 224.379)" fill="#FF5D5D"></rect><path d="M116.59 210.555L121.153 208.813L123.476 214.897L118.912 216.639L116.59 210.555Z" fill="#FF5D5D"></path><rect x="-0.391492" y="0.874846" width="5.55555" height="38.3828" transform="matrix(-0.934257 0.3566 0.3566 0.934257 89.6652 199.309)" fill="#8E8E8E" stroke="#8E8E8E" stroke-width="1.35545"></rect><path d="M52.1484 214.298L45.6611 228.795L55.8271 255.428" stroke="black" stroke-width="2.3738"></path><rect width="12.0942" height="4.31937" transform="matrix(-0.934257 0.3566 0.3566 0.934257 93.7734 190.096)" fill="#535353"></rect><path fill-rule="evenodd" clip-rule="evenodd" d="M86.8711 182.324L65.0814 190.641L70.087 203.756L74.5245 202.062L71.2126 193.385L84.1274 188.456L85.899 193.097L90.3365 191.403L86.8711 182.324Z" fill="#FF5D5D"></path><rect width="12.0942" height="4.31937" transform="matrix(-0.934257 0.3566 0.3566 0.934257 62.2891 202.107)" fill="#535353"></rect><path fill-rule="evenodd" clip-rule="evenodd" d="M58.0391 199.262L36.5911 207.448L39.6963 215.584L44.1339 213.89L42.7224 210.192L59.7328 203.699L58.0391 199.262Z" fill="#456DFF"></path><path fill-rule="evenodd" clip-rule="evenodd" d="M17.8667 285.501V308.458H30.6742L36.0742 303.144V290.194L31.3056 285.501H17.8667Z" fill="#535353"></path><path fill-rule="evenodd" clip-rule="evenodd" d="M28.1801 285.501V308.458H15.3727L9.97266 303.144V290.194L14.7413 285.501H28.1801Z" fill="#535353"></path><path fill-rule="evenodd" clip-rule="evenodd" d="M106.005 311.647L98.1235 303.766L98.1235 288.674L106.74 280.058L111.218 284.536L104.457 291.298L104.457 301.143L108.628 305.314L118.473 305.314L125.235 298.553L129.713 303.031L121.097 311.647L106.005 311.647Z" fill="black"></path><path d="M114.867 323.495L91.6523 246.289L230.836 288.626L114.867 323.495Z" fill="white" stroke="black" stroke-width="2.3738" stroke-linecap="square"></path><rect x="109.857" y="307.371" width="17.0287" height="17.0287" transform="rotate(-16.7349 109.857 307.371)" stroke="black" stroke-width="2.3738"></rect><path d="M102.637 289.191L109.874 282.334" stroke="black" stroke-width="5.69712" stroke-linecap="square"></path><path d="M176.793 304.834L174.901 295.045" stroke="black" stroke-width="5.69711" stroke-linecap="square"></path><path d="M160.164 316.162L156.504 303.989" stroke="black" stroke-width="2.3738" stroke-linecap="square"></path><path d="M165.934 314.427L162.273 302.253" stroke="black" stroke-width="2.3738" stroke-linecap="square"></path><path d="M149.863 270.291L153.45 258.095" stroke="black" stroke-width="2.3738" stroke-linecap="square"></path><path d="M155.641 271.981L159.227 259.786" stroke="black" stroke-width="2.3738" stroke-linecap="square"></path><path d="M161.418 273.683L165.004 261.487" stroke="black" stroke-width="2.3738" stroke-linecap="square"></path><path d="M23 296.341V313.165L33.8546 324.02H84.8714L98.4396 310.452" stroke="#D0D0D0" stroke-width="16.2654"></path><path fill-rule="evenodd" clip-rule="evenodd" d="M91.641 305.784L91.641 310.639L98.34 317.338L103.838 317.338L110.037 311.14L110.037 305.641L103.338 298.942L98.4825 298.942L91.641 305.784Z" fill="#535353"></path><line x1="98.0913" y1="303.8" x2="104.405" y2="310.115" stroke="black" stroke-width="2.7109"></line><rect x="262.82" y="184.006" width="13.7295" height="13.7295" fill="white" stroke="black" stroke-width="2.3738"></rect><rect x="191.855" y="126.369" width="70.3891" height="70.3891" fill="#FF5D5D" stroke="black" stroke-width="2.3738"></rect><rect x="262.82" y="197.938" width="124.663" height="124.663" fill="#456DFF" stroke="black" stroke-width="2.3738"></rect><rect x="334.665" y="2.53344" width="142.819" height="142.819" transform="rotate(30 334.665 2.53344)" fill="#F7C325" stroke="black" stroke-width="2.3738"></rect><path d="M320.684 192.96V201.906" stroke="black" stroke-width="2.3738" stroke-linecap="square"></path><path d="M320.684 318.804V327.75" stroke="black" stroke-width="2.3738" stroke-linecap="square"></path><path d="M326.055 192.96V201.906" stroke="black" stroke-width="2.3738" stroke-linecap="square"></path><path d="M326.055 318.804V327.75" stroke="black" stroke-width="2.3738" stroke-linecap="square"></path><path d="M392.262 254.985L383.315 254.985" stroke="black" stroke-width="2.3738" stroke-linecap="square"></path><path d="M266.414 254.985L257.468 254.985" stroke="black" stroke-width="2.3738" stroke-linecap="square"></path><path d="M392.262 260.353L383.315 260.353" stroke="black" stroke-width="2.3738" stroke-linecap="square"></path><path d="M266.414 260.353L257.468 260.353" stroke="black" stroke-width="2.3738" stroke-linecap="square"></path><path d="M226.746 122.582V130.335M226.746 192.661V200.414" stroke="black" stroke-width="2.3738" stroke-linecap="square"></path><path d="M266.109 161.348L258.356 161.348M196.03 161.348L188.277 161.348" stroke="black" stroke-width="2.3738" stroke-linecap="square"></path><path d="M386.848 38.8516L392.275 28.9039" stroke="black" stroke-width="2.3738" stroke-linecap="square"></path><path d="M391.555 41.4248L396.982 31.4772" stroke="black" stroke-width="2.3738" stroke-linecap="square"></path><path d="M396.27 43.9951L401.697 34.0475" stroke="black" stroke-width="2.3738" stroke-linecap="square"></path><path d="M317.715 163.538L323.142 153.59" stroke="black" stroke-width="2.3738" stroke-linecap="square"></path><path d="M322.422 166.109L327.849 156.162" stroke="black" stroke-width="2.3738" stroke-linecap="square"></path><path d="M327.137 168.679L332.564 158.731" stroke="black" stroke-width="2.3738" stroke-linecap="square"></path><path d="M419.012 131.187L428.699 137.066" stroke="black" stroke-width="2.3738" stroke-linecap="square"></path><path d="M416.223 135.779L425.91 141.659" stroke="black" stroke-width="2.3738" stroke-linecap="square"></path><path d="M413.438 140.362L423.125 146.242" stroke="black" stroke-width="2.3738" stroke-linecap="square"></path><path d="M297.633 56.3721L307.32 62.252" stroke="black" stroke-width="2.3738" stroke-linecap="square"></path><path d="M294.844 60.9648L304.531 66.8448" stroke="black" stroke-width="2.3738" stroke-linecap="square"></path><path d="M292.062 65.5479L301.75 71.4278" stroke="black" stroke-width="2.3738" stroke-linecap="square"></path></svg>